<svg width="373" height="145" viewBox="0 0 373 145" fill="none" xmlns="http://www.w3.org/2000/svg">
<path d="M13.7557 15.5426L2.29261 20.9801V18.2017L10.6193 14.5028L10.5256 14.6562V14.2812L10.6193 14.4347L2.29261 10.7358V7.94886L13.7557 13.3949V15.5426ZM25.9496 5.54545L30.6712 19.5568H30.8587L35.5803 5.54545H38.6911L32.4695 23H29.0604L22.8388 5.54545H25.9496ZM45.3175 23.2642C44.0163 23.2642 42.8942 22.9886 41.951 22.4375C41.0135 21.8807 40.2919 21.0994 39.7862 20.0938C39.2805 19.0824 39.0277 17.8977 39.0277 16.5398C39.0277 15.1932 39.2805 14.0114 39.7862 12.9943C40.2919 11.9716 41.0021 11.1733 41.9169 10.5994C42.8317 10.0256 43.9055 9.73864 45.1385 9.73864C45.9055 9.73864 46.6413 9.86364 47.3459 10.1136C48.0504 10.3636 48.6783 10.7528 49.2294 11.2812C49.7805 11.8097 50.2152 12.4915 50.5334 13.3267C50.8572 14.1619 51.0192 15.1648 51.0192 16.3352V17.2557H40.468V15.2699H48.3175C48.3175 14.6335 48.1868 14.0682 47.9254 13.5739C47.6641 13.0795 47.2976 12.6903 46.826 12.4062C46.3544 12.1165 45.8004 11.9716 45.1641 11.9716C44.4879 11.9716 43.8942 12.1364 43.3828 12.4659C42.8771 12.7955 42.4851 13.2273 42.2067 13.7614C41.9283 14.2898 41.7891 14.8665 41.7891 15.4915V17.1193C41.7891 17.9432 41.9368 18.6477 42.2322 19.233C42.5277 19.8125 42.9396 20.2585 43.468 20.571C44.0021 20.8778 44.6271 21.0312 45.343 21.0312C45.8146 21.0312 46.2408 20.9659 46.6214 20.8352C47.0078 20.6989 47.3402 20.4972 47.6186 20.2301C47.897 19.9631 48.1101 19.6307 48.2578 19.233L50.8743 19.625C50.6811 20.358 50.3345 20.9972 49.8345 21.5426C49.3345 22.0881 48.701 22.5114 47.9339 22.8125C47.1669 23.1136 46.2947 23.2642 45.3175 23.2642ZM62.0732 17.5369V9.90909H64.8601V23H62.1413V20.7074H62.005C61.7038 21.4176 61.2209 22.0057 60.5561 22.4716C59.8913 22.9375 59.0675 23.1705 58.0845 23.1705C57.2379 23.1705 56.4879 22.983 55.8345 22.608C55.1868 22.2273 54.6783 21.6705 54.3089 20.9375C53.9453 20.2045 53.7607 19.304 53.755 18.2358V9.90909H56.5419V17.8608C56.5419 18.7244 56.7805 19.4119 57.2578 19.9233C57.7351 20.4347 58.3544 20.6903 59.1158 20.6903C59.5874 20.6903 60.0504 20.5767 60.505 20.3494C60.9595 20.1165 61.3345 19.767 61.63 19.3011C61.9311 18.8352 62.0788 18.2472 62.0732 17.5369ZM68.169 23V9.90909H70.956V23H68.169ZM69.5753 7.95739C69.1151 7.95739 68.7173 7.80398 68.3821 7.49716C68.0526 7.18466 67.8878 6.80966 67.8878 6.37216C67.8878 5.93466 68.0526 5.5625 68.3821 5.25568C68.7173 4.94318 69.1151 4.78693 69.5753 4.78693C70.0355 4.78693 70.4304 4.94318 70.7599 5.25568C71.0952 5.5625 71.2628 5.93466 71.2628 6.37216C71.2628 6.80966 71.0952 7.18466 70.7599 7.49716C70.4304 7.80398 70.0355 7.95739 69.5753 7.95739ZM77.0497 5.54545V23H74.2628V5.54545H77.0497ZM83.1435 5.54545V23H80.3565V5.54545H83.1435ZM92.169 23.2642C90.8679 23.2642 89.7457 22.9886 88.8026 22.4375C87.8651 21.8807 87.1435 21.0994 86.6378 20.0938C86.1321 19.0824 85.8793 17.8977 85.8793 16.5398C85.8793 15.1932 86.1321 14.0114 86.6378 12.9943C87.1435 11.9716 87.8537 11.1733 88.7685 10.5994C89.6832 10.0256 90.7571 9.73864 91.9901 9.73864C92.7571 9.73864 93.4929 9.86364 94.1974 10.1136C94.902 10.3636 95.5298 10.7528 96.081 11.2812C96.6321 11.8097 97.0668 12.4915 97.3849 13.3267C97.7088 14.1619 97.8707 15.1648 97.8707 16.3352V17.2557H87.3196V15.2699H95.169C95.169 14.6335 95.0384 14.0682 94.777 13.5739C94.5156 13.0795 94.1491 12.6903 93.6776 12.4062C93.206 12.1165 92.652 11.9716 92.0156 11.9716C91.3395 11.9716 90.7457 12.1364 90.2344 12.4659C89.7287 12.7955 89.3366 13.2273 89.0582 13.7614C88.7798 14.2898 88.6406 14.8665 88.6406 15.4915V17.1193C88.6406 17.9432 88.7884 18.6477 89.0838 19.233C89.3793 19.8125 89.7912 20.2585 90.3196 20.571C90.8537 20.8778 91.4787 21.0312 92.1946 21.0312C92.6662 21.0312 93.0923 20.9659 93.473 20.8352C93.8594 20.6989 94.1918 20.4972 94.4702 20.2301C94.7486 19.9631 94.9616 19.6307 95.1094 19.233L97.7259 19.625C97.5327 20.358 97.1861 20.9972 96.6861 21.5426C96.1861 22.0881 95.5526 22.5114 94.7855 22.8125C94.0185 23.1136 93.1463 23.2642 92.169 23.2642ZM100.376 23V21.1676L107.322 12.3892V12.2699H100.607V9.90909H110.766V11.8693L104.109 20.5199V20.6392H110.996V23H100.376ZM134.994 11.3153H132.113C132.016 10.7642 131.835 10.2784 131.567 9.85795C131.306 9.4375 130.982 9.08239 130.596 8.79261C130.21 8.49716 129.775 8.27557 129.292 8.12784C128.809 7.97443 128.295 7.89773 127.749 7.89773C126.766 7.89773 125.891 8.14489 125.124 8.6392C124.357 9.12784 123.752 9.84659 123.309 10.7955C122.871 11.7443 122.653 12.9034 122.653 14.2727C122.653 15.6591 122.874 16.8267 123.317 17.7756C123.761 18.7187 124.363 19.4347 125.124 19.9233C125.891 20.4062 126.763 20.6477 127.741 20.6477C128.281 20.6477 128.789 20.5767 129.266 20.4347C129.749 20.2869 130.184 20.071 130.57 19.7869C130.957 19.4972 131.283 19.1449 131.55 18.7301C131.817 18.3153 132.005 17.8381 132.113 17.2983L134.994 17.3153C134.863 18.1619 134.596 18.946 134.192 19.6676C133.795 20.3892 133.278 21.017 132.641 21.5511C132.011 22.0852 131.278 22.5 130.442 22.7955C129.613 23.0909 128.701 23.2386 127.707 23.2386C126.19 23.2386 124.835 22.8807 123.641 22.1648C122.454 21.4489 121.516 20.4233 120.829 19.0881C120.141 17.7472 119.798 16.142 119.798 14.2727C119.798 12.4034 120.141 10.8011 120.829 9.46591C121.522 8.125 122.462 7.09659 123.65 6.38068C124.843 5.66477 126.195 5.30682 127.707 5.30682C128.656 5.30682 129.539 5.44318 130.357 5.71591C131.175 5.98295 131.906 6.375 132.548 6.89204C133.195 7.40341 133.729 8.03125 134.15 8.77557C134.576 9.5142 134.857 10.3608 134.994 11.3153ZM140.659 15.2699V23H137.872V5.54545H140.608V12.0824H140.77C141.071 11.3608 141.54 10.7898 142.176 10.3693C142.812 9.94886 143.636 9.73864 144.648 9.73864C145.551 9.73864 146.338 9.92614 147.009 10.3011C147.685 10.6761 148.21 11.2301 148.585 11.9631C148.96 12.6903 149.148 13.5937 149.148 14.6733V23H146.361V15.0483C146.366 14.1222 146.131 13.4034 145.653 12.892C145.176 12.375 144.511 12.1165 143.659 12.1165C143.08 12.1165 142.563 12.2415 142.108 12.4915C141.659 12.7358 141.304 13.0937 141.043 13.5653C140.787 14.0369 140.659 14.6051 140.659 15.2699ZM158.026 23.2642C156.776 23.2642 155.688 22.983 154.762 22.4205C153.842 21.858 153.126 21.071 152.614 20.0597C152.109 19.0426 151.856 17.8608 151.856 16.5142C151.856 15.1562 152.109 13.9687 152.614 12.9517C153.126 11.9347 153.842 11.1449 154.762 10.5824C155.688 10.0199 156.776 9.73864 158.026 9.73864C159.276 9.73864 160.364 10.0199 161.29 10.5824C162.217 11.1449 162.933 11.9347 163.438 12.9517C163.95 13.9687 164.205 15.1562 164.205 16.5142C164.205 17.8608 163.95 19.0426 163.438 20.0597C162.933 21.071 162.217 21.858 161.29 22.4205C160.364 22.983 159.276 23.2642 158.026 23.2642ZM158.043 20.9801C158.793 20.9801 159.415 20.7784 159.91 20.375C160.41 19.9659 160.782 19.4233 161.026 18.7472C161.271 18.071 161.393 17.3239 161.393 16.5057C161.393 15.6818 161.271 14.9318 161.026 14.2557C160.782 13.5739 160.41 13.0284 159.91 12.6193C159.415 12.2102 158.793 12.0057 158.043 12.0057C157.282 12.0057 156.651 12.2102 156.151 12.6193C155.651 13.0284 155.279 13.5739 155.035 14.2557C154.79 14.9318 154.668 15.6818 154.668 16.5057C154.668 17.3239 154.79 18.071 155.035 18.7472C155.279 19.4233 155.651 19.9659 156.151 20.375C156.651 20.7784 157.282 20.9801 158.043 20.9801ZM166.935 23V9.90909H169.722V23H166.935ZM168.341 7.95739C167.881 7.95739 167.483 7.80398 167.148 7.49716C166.818 7.18466 166.653 6.80966 166.653 6.37216C166.653 5.93466 166.818 5.5625 167.148 5.25568C167.483 4.94318 167.881 4.78693 168.341 4.78693C168.801 4.78693 169.196 4.94318 169.526 5.25568C169.861 5.5625 170.028 5.93466 170.028 6.37216C170.028 6.80966 169.861 7.18466 169.526 7.49716C169.196 7.80398 168.801 7.95739 168.341 7.95739ZM183.077 13.2244L180.545 13.5824C180.46 13.2926 180.315 13.0199 180.111 12.7642C179.906 12.5028 179.634 12.2898 179.293 12.125C178.952 11.9602 178.526 11.8778 178.014 11.8778C177.327 11.8778 176.753 12.0312 176.293 12.3381C175.832 12.6392 175.602 13.0284 175.602 13.5057C175.602 13.9205 175.756 14.2557 176.062 14.5114C176.375 14.7614 176.878 14.9687 177.571 15.1335L179.719 15.6108C180.935 15.8835 181.841 16.3125 182.438 16.8977C183.04 17.4773 183.341 18.2301 183.341 19.1562C183.341 19.9574 183.108 20.6676 182.642 21.2869C182.182 21.9062 181.543 22.392 180.724 22.7443C179.906 23.0909 178.96 23.2642 177.886 23.2642C176.364 23.2642 175.128 22.9403 174.179 22.2926C173.23 21.6449 172.653 20.7301 172.449 19.5483L175.151 19.2074C175.298 19.8324 175.602 20.304 176.062 20.6222C176.528 20.9347 177.131 21.0909 177.869 21.0909C178.665 21.0909 179.298 20.9261 179.77 20.5966C180.247 20.267 180.489 19.8636 180.494 19.3864C180.489 18.9886 180.338 18.6591 180.043 18.3977C179.747 18.1364 179.293 17.9375 178.679 17.8011L176.455 17.3153C175.216 17.0483 174.301 16.608 173.71 15.9943C173.125 15.375 172.832 14.5966 172.832 13.6591C172.832 12.8693 173.048 12.1818 173.48 11.5966C173.918 11.0114 174.526 10.5568 175.304 10.233C176.082 9.90341 176.977 9.73864 177.989 9.73864C179.455 9.73864 180.608 10.054 181.449 10.6847C182.295 11.3153 182.838 12.1619 183.077 13.2244ZM186.036 23V9.90909H188.823V23H186.036ZM187.442 7.95739C186.982 7.95739 186.585 7.80398 186.249 7.49716C185.92 7.18466 185.755 6.80966 185.755 6.37216C185.755 5.93466 185.92 5.5625 186.249 5.25568C186.585 4.94318 186.982 4.78693 187.442 4.78693C187.903 4.78693 188.298 4.94318 188.627 5.25568C188.962 5.5625 189.13 5.93466 189.13 6.37216C189.13 6.80966 188.962 7.18466 188.627 7.49716C188.298 7.80398 187.903 7.95739 187.442 7.95739ZM192.13 23V9.90909H194.823V12.0312H194.96C195.198 11.304 195.616 10.7358 196.212 10.3267C196.809 9.91761 197.485 9.71307 198.241 9.71307C198.406 9.71307 198.596 9.72159 198.812 9.73864C199.028 9.75 199.204 9.76705 199.34 9.78977V12.3977C199.227 12.3636 199.033 12.3295 198.761 12.2955C198.494 12.2557 198.229 12.2358 197.968 12.2358C197.383 12.2358 196.86 12.3608 196.4 12.6108C195.94 12.8551 195.576 13.196 195.309 13.6335C195.048 14.071 194.917 14.571 194.917 15.1335V23H192.13ZM209.723 5.54545L214.445 19.5568H214.632L219.354 5.54545H222.464L216.243 23H212.834L206.612 5.54545H209.723ZM228.972 23.2642C227.722 23.2642 226.634 22.983 225.707 22.4205C224.787 21.858 224.071 21.071 223.56 20.0597C223.054 19.0426 222.801 17.8608 222.801 16.5142C222.801 15.1562 223.054 13.9687 223.56 12.9517C224.071 11.9347 224.787 11.1449 225.707 10.5824C226.634 10.0199 227.722 9.73864 228.972 9.73864C230.222 9.73864 231.31 10.0199 232.236 10.5824C233.162 11.1449 233.878 11.9347 234.384 12.9517C234.895 13.9687 235.151 15.1562 235.151 16.5142C235.151 17.8608 234.895 19.0426 234.384 20.0597C233.878 21.071 233.162 21.858 232.236 22.4205C231.31 22.983 230.222 23.2642 228.972 23.2642ZM228.989 20.9801C229.739 20.9801 230.361 20.7784 230.855 20.375C231.355 19.9659 231.727 19.4233 231.972 18.7472C232.216 18.071 232.338 17.3239 232.338 16.5057C232.338 15.6818 232.216 14.9318 231.972 14.2557C231.727 13.5739 231.355 13.0284 230.855 12.6193C230.361 12.2102 229.739 12.0057 228.989 12.0057C228.227 12.0057 227.597 12.2102 227.097 12.6193C226.597 13.0284 226.224 13.5739 225.98 14.2557C225.736 14.9318 225.614 15.6818 225.614 16.5057C225.614 17.3239 225.736 18.071 225.98 18.7472C226.224 19.4233 226.597 19.9659 227.097 20.375C227.597 20.7784 228.227 20.9801 228.989 20.9801ZM244.178 9.90909V12.0994H236.866V9.90909H244.178ZM238.758 6.77273H241.536V19.1222C241.536 19.5767 241.604 19.9233 241.741 20.1619C241.883 20.3949 242.065 20.554 242.286 20.6392C242.513 20.7244 242.763 20.767 243.036 20.767C243.235 20.767 243.411 20.7528 243.565 20.7244C243.724 20.696 243.846 20.6733 243.931 20.6562L244.417 22.8892C244.258 22.9403 244.036 22.9972 243.752 23.0597C243.468 23.1278 243.116 23.1676 242.695 23.179C241.979 23.1903 241.323 23.071 240.727 22.821C240.13 22.5653 239.653 22.1733 239.295 21.6449C238.937 21.1108 238.758 20.4403 238.758 19.6335V6.77273ZM246.88 23V9.90909H249.573V12.0312H249.71C249.948 11.304 250.366 10.7358 250.962 10.3267C251.559 9.91761 252.235 9.71307 252.991 9.71307C253.156 9.71307 253.346 9.72159 253.562 9.73864C253.778 9.75 253.954 9.76705 254.09 9.78977V12.3977C253.977 12.3636 253.783 12.3295 253.511 12.2955C253.244 12.2557 252.979 12.2358 252.718 12.2358C252.133 12.2358 251.61 12.3608 251.15 12.6108C250.69 12.8551 250.326 13.196 250.059 13.6335C249.798 14.071 249.667 14.571 249.667 15.1335V23H246.88ZM261.458 23.2642C260.157 23.2642 259.035 22.9886 258.092 22.4375C257.154 21.8807 256.433 21.0994 255.927 20.0938C255.421 19.0824 255.168 17.8977 255.168 16.5398C255.168 15.1932 255.421 14.0114 255.927 12.9943C256.433 11.9716 257.143 11.1733 258.058 10.5994C258.972 10.0256 260.046 9.73864 261.279 9.73864C262.046 9.73864 262.782 9.86364 263.487 10.1136C264.191 10.3636 264.819 10.7528 265.37 11.2812C265.921 11.8097 266.356 12.4915 266.674 13.3267C266.998 14.1619 267.16 15.1648 267.16 16.3352V17.2557H256.609V15.2699H264.458C264.458 14.6335 264.327 14.0682 264.066 13.5739C263.805 13.0795 263.438 12.6903 262.967 12.4062C262.495 12.1165 261.941 11.9716 261.305 11.9716C260.629 11.9716 260.035 12.1364 259.523 12.4659C259.018 12.7955 258.626 13.2273 258.347 13.7614C258.069 14.2898 257.93 14.8665 257.93 15.4915V17.1193C257.93 17.9432 258.077 18.6477 258.373 19.233C258.668 19.8125 259.08 20.2585 259.609 20.571C260.143 20.8778 260.768 21.0312 261.484 21.0312C261.955 21.0312 262.381 20.9659 262.762 20.8352C263.148 20.6989 263.481 20.4972 263.759 20.2301C264.038 19.9631 264.251 19.6307 264.398 19.233L267.015 19.625C266.822 20.358 266.475 20.9972 265.975 21.5426C265.475 22.0881 264.842 22.5114 264.075 22.8125C263.308 23.1136 262.435 23.2642 261.458 23.2642ZM276.262 23V5.54545H279.126V20.571H286.933V23H276.262ZM293.446 23.2812C292.616 23.2812 291.869 23.1307 291.205 22.8295C290.54 22.5227 290.011 22.0739 289.619 21.483C289.233 20.892 289.04 20.1676 289.04 19.3097C289.04 18.571 289.179 17.9631 289.457 17.4858C289.741 17.0028 290.122 16.6193 290.599 16.3352C291.077 16.0511 291.614 15.8381 292.21 15.696C292.807 15.554 293.418 15.446 294.043 15.3722C294.821 15.2812 295.452 15.2074 295.935 15.1506C296.418 15.0881 296.77 14.9886 296.991 14.8523C297.213 14.7159 297.324 14.4943 297.324 14.1875V14.1278C297.324 13.4347 297.122 12.8949 296.719 12.5085C296.315 12.1222 295.724 11.929 294.946 11.929C294.134 11.929 293.491 12.108 293.02 12.4659C292.554 12.8239 292.233 13.2301 292.057 13.6847L289.457 13.1989C289.719 12.4034 290.116 11.75 290.651 11.2386C291.19 10.7273 291.827 10.3494 292.56 10.1051C293.293 9.8608 294.08 9.73864 294.92 9.73864C295.489 9.73864 296.074 9.80682 296.676 9.94318C297.284 10.0739 297.847 10.304 298.364 10.6335C298.881 10.9631 299.298 11.4233 299.616 12.0142C299.94 12.6051 300.102 13.3608 300.102 14.2812V23H297.409V21.2102H297.307C297.136 21.5511 296.884 21.8807 296.548 22.1989C296.213 22.517 295.79 22.7784 295.278 22.983C294.767 23.1818 294.156 23.2812 293.446 23.2812ZM294.111 21.142C294.781 21.142 295.355 21.0085 295.832 20.7415C296.315 20.4744 296.685 20.125 296.94 19.6932C297.202 19.2614 297.332 18.7926 297.332 18.2869V16.6676C297.236 16.7528 297.065 16.8324 296.821 16.9062C296.577 16.9744 296.298 17.0369 295.986 17.0938C295.673 17.1449 295.366 17.1903 295.065 17.2301C294.77 17.2699 294.52 17.304 294.315 17.3324C293.838 17.4006 293.403 17.5085 293.011 17.6562C292.625 17.7983 292.315 18.0028 292.082 18.2699C291.855 18.5312 291.741 18.8778 291.741 19.3097C291.741 19.9119 291.963 20.3693 292.406 20.6818C292.855 20.9886 293.423 21.142 294.111 21.142ZM306.151 15.2699V23H303.364V9.90909H306.032V12.0824H306.194C306.495 11.3722 306.969 10.804 307.617 10.3778C308.271 9.9517 309.089 9.73864 310.072 9.73864C310.969 9.73864 311.754 9.92898 312.424 10.3097C313.094 10.6847 313.614 11.2386 313.984 11.9716C314.359 12.7045 314.543 13.6051 314.538 14.6733V23H311.759V15.0483C311.759 14.1335 311.521 13.4176 311.043 12.9006C310.566 12.3778 309.913 12.1165 309.083 12.1165C308.509 12.1165 308.001 12.2415 307.558 12.4915C307.12 12.7358 306.776 13.0937 306.526 13.5653C306.276 14.0369 306.151 14.6051 306.151 15.2699ZM323.408 28.1818C322.334 28.1818 321.413 28.0398 320.646 27.7557C319.885 27.4716 319.266 27.0938 318.788 26.6222C318.311 26.1506 317.964 25.6335 317.749 25.071L320.195 24.2699C320.337 24.5199 320.533 24.7784 320.783 25.0455C321.033 25.3182 321.371 25.5455 321.797 25.7273C322.229 25.9148 322.777 26.0085 323.442 26.0085C324.374 26.0085 325.141 25.7841 325.743 25.3352C326.351 24.8864 326.655 24.1619 326.655 23.1619V20.6307H326.493C326.339 20.9261 326.115 21.2443 325.82 21.5852C325.524 21.9205 325.126 22.2074 324.626 22.446C324.126 22.6847 323.487 22.804 322.709 22.804C321.692 22.804 320.771 22.5653 319.947 22.0881C319.124 21.6051 318.47 20.8892 317.987 19.9403C317.51 18.9915 317.271 17.8125 317.271 16.4034C317.271 14.9943 317.51 13.7926 317.987 12.7983C318.464 11.804 319.115 11.0455 319.939 10.5227C320.763 10 321.692 9.73864 322.726 9.73864C323.521 9.73864 324.166 9.87216 324.661 10.1392C325.161 10.4006 325.553 10.7131 325.837 11.0767C326.126 11.4347 326.351 11.7585 326.51 12.0483H326.68V9.90909H329.416V23.2557C329.416 24.375 329.152 25.2983 328.624 26.0256C328.095 26.7528 327.376 27.2926 326.467 27.6449C325.564 28.0028 324.544 28.1818 323.408 28.1818ZM323.408 20.5625C324.107 20.5625 324.697 20.3977 325.18 20.0682C325.669 19.733 326.041 19.2528 326.297 18.6278C326.553 18.0028 326.68 17.2528 326.68 16.3778C326.68 15.5199 326.553 14.767 326.297 14.1193C326.047 13.4716 325.678 12.9687 325.189 12.6108C324.706 12.2472 324.112 12.0653 323.408 12.0653C322.675 12.0653 322.061 12.2557 321.567 12.6364C321.078 13.0114 320.709 13.5256 320.459 14.179C320.214 14.8267 320.092 15.5597 320.092 16.3778C320.092 17.2131 320.217 17.946 320.467 18.5767C320.717 19.2017 321.087 19.6903 321.575 20.0426C322.07 20.3892 322.68 20.5625 323.408 20.5625ZM341.05 17.5369V9.90909H343.837V23H341.118V20.7074H340.982C340.68 21.4176 340.197 22.0057 339.533 22.4716C338.868 22.9375 338.044 23.1705 337.061 23.1705C336.214 23.1705 335.464 22.983 334.811 22.608C334.163 22.2273 333.655 21.6705 333.286 20.9375C332.922 20.2045 332.737 19.304 332.732 18.2358V9.90909H335.518V17.8608C335.518 18.7244 335.757 19.4119 336.234 19.9233C336.712 20.4347 337.331 20.6903 338.092 20.6903C338.564 20.6903 339.027 20.5767 339.482 20.3494C339.936 20.1165 340.311 19.767 340.607 19.3011C340.908 18.8352 341.055 18.2472 341.05 17.5369ZM352.864 23.2642C351.563 23.2642 350.441 22.9886 349.498 22.4375C348.56 21.8807 347.839 21.0994 347.333 20.0938C346.827 19.0824 346.575 17.8977 346.575 16.5398C346.575 15.1932 346.827 14.0114 347.333 12.9943C347.839 11.9716 348.549 11.1733 349.464 10.5994C350.379 10.0256 351.452 9.73864 352.685 9.73864C353.452 9.73864 354.188 9.86364 354.893 10.1136C355.597 10.3636 356.225 10.7528 356.776 11.2812C357.327 11.8097 357.762 12.4915 358.08 13.3267C358.404 14.1619 358.566 15.1648 358.566 16.3352V17.2557H348.015V15.2699H355.864C355.864 14.6335 355.734 14.0682 355.472 13.5739C355.211 13.0795 354.844 12.6903 354.373 12.4062C353.901 12.1165 353.347 11.9716 352.711 11.9716C352.035 11.9716 351.441 12.1364 350.93 12.4659C350.424 12.7955 350.032 13.2273 349.754 13.7614C349.475 14.2898 349.336 14.8665 349.336 15.4915V17.1193C349.336 17.9432 349.484 18.6477 349.779 19.233C350.075 19.8125 350.487 20.2585 351.015 20.571C351.549 20.8778 352.174 21.0312 352.89 21.0312C353.362 21.0312 353.788 20.9659 354.168 20.8352C354.555 20.6989 354.887 20.4972 355.165 20.2301C355.444 19.9631 355.657 19.6307 355.805 19.233L358.421 19.625C358.228 20.358 357.881 20.9972 357.381 21.5426C356.881 22.0881 356.248 22.5114 355.481 22.8125C354.714 23.1136 353.842 23.2642 352.864 23.2642ZM13.7557 73.5426L2.29261 78.9801V76.2017L10.6193 72.5028L10.5256 72.6562V72.2812L10.6193 72.4347L2.29261 68.7358V65.9489L13.7557 71.3949V73.5426ZM24.0746 81V63.5455H30.4411C31.7876 63.5455 32.9098 63.7955 33.8075 64.2955C34.7109 64.7898 35.3899 65.4687 35.8445 66.3324C36.299 67.1903 36.5263 68.1648 36.5263 69.2557C36.5263 70.3466 36.2962 71.3239 35.8359 72.1875C35.3814 73.0455 34.6996 73.7244 33.7905 74.2244C32.8871 74.7187 31.7621 74.9659 30.4155 74.9659H26.1115V72.571H30.0916C30.9212 72.571 31.5945 72.429 32.1115 72.1449C32.6342 71.8551 33.0178 71.4602 33.2621 70.9602C33.5064 70.4602 33.6286 69.892 33.6286 69.2557C33.6286 68.6136 33.5064 68.0455 33.2621 67.5511C33.0178 67.0511 32.6342 66.6619 32.1115 66.3835C31.5888 66.1051 30.907 65.9659 30.0661 65.9659H26.9382V81H24.0746ZM42.0575 63.5455V81H39.2706V63.5455H42.0575ZM51.0831 81.2642C49.782 81.2642 48.6598 80.9886 47.7166 80.4375C46.7791 79.8807 46.0575 79.0994 45.5518 78.0938C45.0462 77.0824 44.7933 75.8977 44.7933 74.5398C44.7933 73.1932 45.0462 72.0114 45.5518 70.9943C46.0575 69.9716 46.7678 69.1733 47.6825 68.5994C48.5973 68.0256 49.6712 67.7386 50.9041 67.7386C51.6712 67.7386 52.407 67.8636 53.1115 68.1136C53.8161 68.3636 54.4439 68.7528 54.995 69.2812C55.5462 69.8097 55.9808 70.4915 56.299 71.3267C56.6229 72.1619 56.7848 73.1648 56.7848 74.3352V75.2557H46.2337V73.2699H54.0831C54.0831 72.6335 53.9524 72.0682 53.6911 71.5739C53.4297 71.0795 53.0632 70.6903 52.5916 70.4062C52.12 70.1165 51.5661 69.9716 50.9297 69.9716C50.2536 69.9716 49.6598 70.1364 49.1484 70.4659C48.6428 70.7955 48.2507 71.2273 47.9723 71.7614C47.6939 72.2898 47.5547 72.8665 47.5547 73.4915V75.1193C47.5547 75.9432 47.7024 76.6477 47.9979 77.233C48.2933 77.8125 48.7053 78.2585 49.2337 78.571C49.7678 78.8778 50.3928 79.0312 51.1087 79.0312C51.5803 79.0312 52.0064 78.9659 52.3871 78.8352C52.7734 78.6989 53.1058 78.4972 53.3842 78.2301C53.6626 77.9631 53.8757 77.6307 54.0234 77.233L56.6399 77.625C56.4467 78.358 56.1001 78.9972 55.6001 79.5426C55.1001 80.0881 54.4666 80.5114 53.6996 80.8125C52.9325 81.1136 52.0604 81.2642 51.0831 81.2642ZM63.3132 81.2812C62.4837 81.2812 61.7365 81.1307 61.0717 80.8295C60.407 80.5227 59.8786 80.0739 59.4865 79.483C59.1001 78.892 58.907 78.1676 58.907 77.3097C58.907 76.571 59.0462 75.9631 59.3246 75.4858C59.6087 75.0028 59.9893 74.6193 60.4666 74.3352C60.9439 74.0511 61.4808 73.8381 62.0774 73.696C62.674 73.554 63.2848 73.446 63.9098 73.3722C64.6882 73.2812 65.3189 73.2074 65.8018 73.1506C66.2848 73.0881 66.6371 72.9886 66.8587 72.8523C67.0803 72.7159 67.1911 72.4943 67.1911 72.1875V72.1278C67.1911 71.4347 66.9893 70.8949 66.5859 70.5085C66.1825 70.1222 65.5916 69.929 64.8132 69.929C64.0007 69.929 63.3587 70.108 62.8871 70.4659C62.4212 70.8239 62.1001 71.2301 61.924 71.6847L59.3246 71.1989C59.5859 70.4034 59.9837 69.75 60.5178 69.2386C61.0575 68.7273 61.6939 68.3494 62.4268 68.1051C63.1598 67.8608 63.9467 67.7386 64.7876 67.7386C65.3558 67.7386 65.9411 67.8068 66.5433 67.9432C67.1513 68.0739 67.7138 68.304 68.2308 68.6335C68.7479 68.9631 69.1655 69.4233 69.4837 70.0142C69.8075 70.6051 69.9695 71.3608 69.9695 72.2812V81H67.2763V79.2102H67.174C67.0036 79.5511 66.7507 79.8807 66.4155 80.1989C66.0803 80.517 65.657 80.7784 65.1456 80.983C64.6342 81.1818 64.0234 81.2812 63.3132 81.2812ZM63.978 79.142C64.6484 79.142 65.2223 79.0085 65.6996 78.7415C66.1825 78.4744 66.5518 78.125 66.8075 77.6932C67.0689 77.2614 67.1996 76.7926 67.1996 76.2869V74.6676C67.103 74.7528 66.9325 74.8324 66.6882 74.9062C66.4439 74.9744 66.1655 75.0369 65.853 75.0938C65.5405 75.1449 65.2337 75.1903 64.9325 75.2301C64.6371 75.2699 64.3871 75.304 64.1825 75.3324C63.7053 75.4006 63.2706 75.5085 62.8786 75.6562C62.4922 75.7983 62.1825 76.0028 61.9496 76.2699C61.7223 76.5312 61.6087 76.8778 61.6087 77.3097C61.6087 77.9119 61.8303 78.3693 62.2734 78.6818C62.7223 78.9886 63.2905 79.142 63.978 79.142ZM83.2798 71.2244L80.7486 71.5824C80.6634 71.2926 80.5185 71.0199 80.3139 70.7642C80.1094 70.5028 79.8366 70.2898 79.4957 70.125C79.1548 69.9602 78.7287 69.8778 78.2173 69.8778C77.5298 69.8778 76.956 70.0312 76.4957 70.3381C76.0355 70.6392 75.8054 71.0284 75.8054 71.5057C75.8054 71.9205 75.9588 72.2557 76.2656 72.5114C76.5781 72.7614 77.081 72.9687 77.7741 73.1335L79.9219 73.6108C81.1378 73.8835 82.044 74.3125 82.6406 74.8977C83.2429 75.4773 83.544 76.2301 83.544 77.1562C83.544 77.9574 83.3111 78.6676 82.8452 79.2869C82.3849 79.9062 81.7457 80.392 80.9276 80.7443C80.1094 81.0909 79.1634 81.2642 78.0895 81.2642C76.5668 81.2642 75.331 80.9403 74.3821 80.2926C73.4332 79.6449 72.8565 78.7301 72.652 77.5483L75.3537 77.2074C75.5014 77.8324 75.8054 78.304 76.2656 78.6222C76.7315 78.9347 77.3338 79.0909 78.0724 79.0909C78.8679 79.0909 79.5014 78.9261 79.973 78.5966C80.4503 78.267 80.6918 77.8636 80.6974 77.3864C80.6918 76.9886 80.5412 76.6591 80.2457 76.3977C79.9503 76.1364 79.4957 75.9375 78.8821 75.8011L76.6577 75.3153C75.419 75.0483 74.5043 74.608 73.9134 73.9943C73.3281 73.375 73.0355 72.5966 73.0355 71.6591C73.0355 70.8693 73.2514 70.1818 73.6832 69.5966C74.1207 69.0114 74.7287 68.5568 75.5071 68.233C76.2855 67.9034 77.1804 67.7386 78.1918 67.7386C79.6577 67.7386 80.8111 68.054 81.652 68.6847C82.4986 69.3153 83.0412 70.1619 83.2798 71.2244ZM91.9581 81.2642C90.657 81.2642 89.5348 80.9886 88.5916 80.4375C87.6541 79.8807 86.9325 79.0994 86.4268 78.0938C85.9212 77.0824 85.6683 75.8977 85.6683 74.5398C85.6683 73.1932 85.9212 72.0114 86.4268 70.9943C86.9325 69.9716 87.6428 69.1733 88.5575 68.5994C89.4723 68.0256 90.5462 67.7386 91.7791 67.7386C92.5462 67.7386 93.282 67.8636 93.9865 68.1136C94.6911 68.3636 95.3189 68.7528 95.87 69.2812C96.4212 69.8097 96.8558 70.4915 97.174 71.3267C97.4979 72.1619 97.6598 73.1648 97.6598 74.3352V75.2557H87.1087V73.2699H94.9581C94.9581 72.6335 94.8274 72.0682 94.5661 71.5739C94.3047 71.0795 93.9382 70.6903 93.4666 70.4062C92.995 70.1165 92.4411 69.9716 91.8047 69.9716C91.1286 69.9716 90.5348 70.1364 90.0234 70.4659C89.5178 70.7955 89.1257 71.2273 88.8473 71.7614C88.5689 72.2898 88.4297 72.8665 88.4297 73.4915V75.1193C88.4297 75.9432 88.5774 76.6477 88.8729 77.233C89.1683 77.8125 89.5803 78.2585 90.1087 78.571C90.6428 78.8778 91.2678 79.0312 91.9837 79.0312C92.4553 79.0312 92.8814 78.9659 93.2621 78.8352C93.6484 78.6989 93.9808 78.4972 94.2592 78.2301C94.5376 77.9631 94.7507 77.6307 94.8984 77.233L97.5149 77.625C97.3217 78.358 96.9751 78.9972 96.4751 79.5426C95.9751 80.0881 95.3416 80.5114 94.5746 80.8125C93.8075 81.1136 92.9354 81.2642 91.9581 81.2642ZM121.447 69.3153H118.566C118.469 68.7642 118.288 68.2784 118.021 67.858C117.759 67.4375 117.435 67.0824 117.049 66.7926C116.663 66.4972 116.228 66.2756 115.745 66.1278C115.262 65.9744 114.748 65.8977 114.202 65.8977C113.219 65.8977 112.344 66.1449 111.577 66.6392C110.81 67.1278 110.205 67.8466 109.762 68.7955C109.325 69.7443 109.106 70.9034 109.106 72.2727C109.106 73.6591 109.327 74.8267 109.771 75.7756C110.214 76.7187 110.816 77.4347 111.577 77.9233C112.344 78.4062 113.217 78.6477 114.194 78.6477C114.734 78.6477 115.242 78.5767 115.719 78.4347C116.202 78.2869 116.637 78.071 117.023 77.7869C117.41 77.4972 117.737 77.1449 118.004 76.7301C118.271 76.3153 118.458 75.8381 118.566 75.2983L121.447 75.3153C121.316 76.1619 121.049 76.946 120.646 77.6676C120.248 78.3892 119.731 79.017 119.094 79.5511C118.464 80.0852 117.731 80.5 116.896 80.7955C116.066 81.0909 115.154 81.2386 114.16 81.2386C112.643 81.2386 111.288 80.8807 110.094 80.1648C108.907 79.4489 107.969 78.4233 107.282 77.0881C106.594 75.7472 106.251 74.142 106.251 72.2727C106.251 70.4034 106.594 68.8011 107.282 67.4659C107.975 66.125 108.915 65.0966 110.103 64.3807C111.296 63.6648 112.648 63.3068 114.16 63.3068C115.109 63.3068 115.992 63.4432 116.81 63.7159C117.629 63.983 118.359 64.375 119.001 64.892C119.648 65.4034 120.183 66.0312 120.603 66.7756C121.029 67.5142 121.31 68.3608 121.447 69.3153ZM127.112 73.2699V81H124.325V63.5455H127.061V70.0824H127.223C127.524 69.3608 127.993 68.7898 128.629 68.3693C129.266 67.9489 130.089 67.7386 131.101 67.7386C132.004 67.7386 132.791 67.9261 133.462 68.3011C134.138 68.6761 134.663 69.2301 135.038 69.9631C135.413 70.6903 135.601 71.5937 135.601 72.6733V81H132.814V73.0483C132.82 72.1222 132.584 71.4034 132.107 70.892C131.629 70.375 130.964 70.1165 130.112 70.1165C129.533 70.1165 129.016 70.2415 128.561 70.4915C128.112 70.7358 127.757 71.0937 127.496 71.5653C127.24 72.0369 127.112 72.6051 127.112 73.2699ZM144.479 81.2642C143.229 81.2642 142.141 80.983 141.215 80.4205C140.295 79.858 139.579 79.071 139.067 78.0597C138.562 77.0426 138.309 75.8608 138.309 74.5142C138.309 73.1562 138.562 71.9687 139.067 70.9517C139.579 69.9347 140.295 69.1449 141.215 68.5824C142.141 68.0199 143.229 67.7386 144.479 67.7386C145.729 67.7386 146.817 68.0199 147.744 68.5824C148.67 69.1449 149.386 69.9347 149.891 70.9517C150.403 71.9687 150.658 73.1562 150.658 74.5142C150.658 75.8608 150.403 77.0426 149.891 78.0597C149.386 79.071 148.67 79.858 147.744 80.4205C146.817 80.983 145.729 81.2642 144.479 81.2642ZM144.496 78.9801C145.246 78.9801 145.869 78.7784 146.363 78.375C146.863 77.9659 147.235 77.4233 147.479 76.7472C147.724 76.071 147.846 75.3239 147.846 74.5057C147.846 73.6818 147.724 72.9318 147.479 72.2557C147.235 71.5739 146.863 71.0284 146.363 70.6193C145.869 70.2102 145.246 70.0057 144.496 70.0057C143.735 70.0057 143.104 70.2102 142.604 70.6193C142.104 71.0284 141.732 71.5739 141.488 72.2557C141.244 72.9318 141.121 73.6818 141.121 74.5057C141.121 75.3239 141.244 76.071 141.488 76.7472C141.732 77.4233 142.104 77.9659 142.604 78.375C143.104 78.7784 143.735 78.9801 144.496 78.9801ZM158.987 81.2642C157.737 81.2642 156.649 80.983 155.723 80.4205C154.803 79.858 154.087 79.071 153.575 78.0597C153.07 77.0426 152.817 75.8608 152.817 74.5142C152.817 73.1562 153.07 71.9687 153.575 70.9517C154.087 69.9347 154.803 69.1449 155.723 68.5824C156.649 68.0199 157.737 67.7386 158.987 67.7386C160.237 67.7386 161.325 68.0199 162.251 68.5824C163.178 69.1449 163.893 69.9347 164.399 70.9517C164.911 71.9687 165.166 73.1562 165.166 74.5142C165.166 75.8608 164.911 77.0426 164.399 78.0597C163.893 79.071 163.178 79.858 162.251 80.4205C161.325 80.983 160.237 81.2642 158.987 81.2642ZM159.004 78.9801C159.754 78.9801 160.376 78.7784 160.871 78.375C161.371 77.9659 161.743 77.4233 161.987 76.7472C162.232 76.071 162.354 75.3239 162.354 74.5057C162.354 73.6818 162.232 72.9318 161.987 72.2557C161.743 71.5739 161.371 71.0284 160.871 70.6193C160.376 70.2102 159.754 70.0057 159.004 70.0057C158.243 70.0057 157.612 70.2102 157.112 70.6193C156.612 71.0284 156.24 71.5739 155.996 72.2557C155.751 72.9318 155.629 73.6818 155.629 74.5057C155.629 75.3239 155.751 76.071 155.996 76.7472C156.24 77.4233 156.612 77.9659 157.112 78.375C157.612 78.7784 158.243 78.9801 159.004 78.9801ZM177.944 71.2244L175.413 71.5824C175.327 71.2926 175.183 71.0199 174.978 70.7642C174.773 70.5028 174.501 70.2898 174.16 70.125C173.819 69.9602 173.393 69.8778 172.881 69.8778C172.194 69.8778 171.62 70.0312 171.16 70.3381C170.7 70.6392 170.469 71.0284 170.469 71.5057C170.469 71.9205 170.623 72.2557 170.93 72.5114C171.242 72.7614 171.745 72.9687 172.438 73.1335L174.586 73.6108C175.802 73.8835 176.708 74.3125 177.305 74.8977C177.907 75.4773 178.208 76.2301 178.208 77.1562C178.208 77.9574 177.975 78.6676 177.509 79.2869C177.049 79.9062 176.41 80.392 175.592 80.7443C174.773 81.0909 173.827 81.2642 172.754 81.2642C171.231 81.2642 169.995 80.9403 169.046 80.2926C168.097 79.6449 167.521 78.7301 167.316 77.5483L170.018 77.2074C170.165 77.8324 170.469 78.304 170.93 78.6222C171.396 78.9347 171.998 79.0909 172.737 79.0909C173.532 79.0909 174.165 78.9261 174.637 78.5966C175.114 78.267 175.356 77.8636 175.362 77.3864C175.356 76.9886 175.205 76.6591 174.91 76.3977C174.614 76.1364 174.16 75.9375 173.546 75.8011L171.322 75.3153C170.083 75.0483 169.168 74.608 168.577 73.9943C167.992 73.375 167.7 72.5966 167.7 71.6591C167.7 70.8693 167.915 70.1818 168.347 69.5966C168.785 69.0114 169.393 68.5568 170.171 68.233C170.95 67.9034 171.844 67.7386 172.856 67.7386C174.322 67.7386 175.475 68.054 176.316 68.6847C177.163 69.3153 177.705 70.1619 177.944 71.2244ZM186.622 81.2642C185.321 81.2642 184.199 80.9886 183.256 80.4375C182.318 79.8807 181.597 79.0994 181.091 78.0938C180.585 77.0824 180.332 75.8977 180.332 74.5398C180.332 73.1932 180.585 72.0114 181.091 70.9943C181.597 69.9716 182.307 69.1733 183.222 68.5994C184.136 68.0256 185.21 67.7386 186.443 67.7386C187.21 67.7386 187.946 67.8636 188.651 68.1136C189.355 68.3636 189.983 68.7528 190.534 69.2812C191.085 69.8097 191.52 70.4915 191.838 71.3267C192.162 72.1619 192.324 73.1648 192.324 74.3352V75.2557H181.773V73.2699H189.622C189.622 72.6335 189.491 72.0682 189.23 71.5739C188.969 71.0795 188.602 70.6903 188.131 70.4062C187.659 70.1165 187.105 69.9716 186.469 69.9716C185.793 69.9716 185.199 70.1364 184.688 70.4659C184.182 70.7955 183.79 71.2273 183.511 71.7614C183.233 72.2898 183.094 72.8665 183.094 73.4915V75.1193C183.094 75.9432 183.241 76.6477 183.537 77.233C183.832 77.8125 184.244 78.2585 184.773 78.571C185.307 78.8778 185.932 79.0312 186.648 79.0312C187.119 79.0312 187.545 78.9659 187.926 78.8352C188.312 78.6989 188.645 78.4972 188.923 78.2301C189.202 77.9631 189.415 77.6307 189.562 77.233L192.179 77.625C191.986 78.358 191.639 78.9972 191.139 79.5426C190.639 80.0881 190.006 80.5114 189.239 80.8125C188.472 81.1136 187.599 81.2642 186.622 81.2642ZM200.148 63.5455H203.386L207.818 71.3949H208.006L212.438 63.5455H215.676L209.344 74.2926V81H206.489V74.2926L200.148 63.5455ZM221.214 81.2642C219.964 81.2642 218.876 80.983 217.95 80.4205C217.029 79.858 216.313 79.071 215.802 78.0597C215.296 77.0426 215.043 75.8608 215.043 74.5142C215.043 73.1562 215.296 71.9687 215.802 70.9517C216.313 69.9347 217.029 69.1449 217.95 68.5824C218.876 68.0199 219.964 67.7386 221.214 67.7386C222.464 67.7386 223.552 68.0199 224.478 68.5824C225.404 69.1449 226.12 69.9347 226.626 70.9517C227.137 71.9687 227.393 73.1562 227.393 74.5142C227.393 75.8608 227.137 77.0426 226.626 78.0597C226.12 79.071 225.404 79.858 224.478 80.4205C223.552 80.983 222.464 81.2642 221.214 81.2642ZM221.231 78.9801C221.981 78.9801 222.603 78.7784 223.097 78.375C223.597 77.9659 223.969 77.4233 224.214 76.7472C224.458 76.071 224.58 75.3239 224.58 74.5057C224.58 73.6818 224.458 72.9318 224.214 72.2557C223.969 71.5739 223.597 71.0284 223.097 70.6193C222.603 70.2102 221.981 70.0057 221.231 70.0057C220.469 70.0057 219.839 70.2102 219.339 70.6193C218.839 71.0284 218.467 71.5739 218.222 72.2557C217.978 72.9318 217.856 73.6818 217.856 74.5057C217.856 75.3239 217.978 76.071 218.222 76.7472C218.467 77.4233 218.839 77.9659 219.339 78.375C219.839 78.7784 220.469 78.9801 221.231 78.9801ZM238.44 75.5369V67.9091H241.227V81H238.509V78.7074H238.372C238.071 79.4176 237.588 80.0057 236.923 80.4716C236.259 80.9375 235.435 81.1705 234.452 81.1705C233.605 81.1705 232.855 80.983 232.202 80.608C231.554 80.2273 231.045 79.6705 230.676 78.9375C230.313 78.2045 230.128 77.304 230.122 76.2358V67.9091H232.909V75.8608C232.909 76.7244 233.148 77.4119 233.625 77.9233C234.102 78.4347 234.722 78.6903 235.483 78.6903C235.955 78.6903 236.418 78.5767 236.872 78.3494C237.327 78.1165 237.702 77.767 237.997 77.3011C238.298 76.8352 238.446 76.2472 238.44 75.5369ZM244.536 81V67.9091H247.229V70.0312H247.366C247.604 69.304 248.022 68.7358 248.619 68.3267C249.215 67.9176 249.891 67.7131 250.647 67.7131C250.812 67.7131 251.002 67.7216 251.218 67.7386C251.434 67.75 251.61 67.767 251.746 67.7898V70.3977C251.633 70.3636 251.44 70.3295 251.167 70.2955C250.9 70.2557 250.636 70.2358 250.374 70.2358C249.789 70.2358 249.266 70.3608 248.806 70.6108C248.346 70.8551 247.982 71.196 247.715 71.6335C247.454 72.071 247.323 72.571 247.323 73.1335V81H244.536ZM260.254 81V63.5455H263.118V78.571H270.925V81H260.254ZM277.438 81.2812C276.609 81.2812 275.862 81.1307 275.197 80.8295C274.532 80.5227 274.004 80.0739 273.612 79.483C273.225 78.892 273.032 78.1676 273.032 77.3097C273.032 76.571 273.171 75.9631 273.45 75.4858C273.734 75.0028 274.114 74.6193 274.592 74.3352C275.069 74.0511 275.606 73.8381 276.202 73.696C276.799 73.554 277.41 73.446 278.035 73.3722C278.813 73.2812 279.444 73.2074 279.927 73.1506C280.41 73.0881 280.762 72.9886 280.984 72.8523C281.205 72.7159 281.316 72.4943 281.316 72.1875V72.1278C281.316 71.4347 281.114 70.8949 280.711 70.5085C280.308 70.1222 279.717 69.929 278.938 69.929C278.126 69.929 277.484 70.108 277.012 70.4659C276.546 70.8239 276.225 71.2301 276.049 71.6847L273.45 71.1989C273.711 70.4034 274.109 69.75 274.643 69.2386C275.183 68.7273 275.819 68.3494 276.552 68.1051C277.285 67.8608 278.072 67.7386 278.913 67.7386C279.481 67.7386 280.066 67.8068 280.668 67.9432C281.276 68.0739 281.839 68.304 282.356 68.6335C282.873 68.9631 283.29 69.4233 283.609 70.0142C283.933 70.6051 284.094 71.3608 284.094 72.2812V81H281.401V79.2102H281.299C281.129 79.5511 280.876 79.8807 280.54 80.1989C280.205 80.517 279.782 80.7784 279.271 80.983C278.759 81.1818 278.148 81.2812 277.438 81.2812ZM278.103 79.142C278.773 79.142 279.347 79.0085 279.825 78.7415C280.308 78.4744 280.677 78.125 280.933 77.6932C281.194 77.2614 281.325 76.7926 281.325 76.2869V74.6676C281.228 74.7528 281.058 74.8324 280.813 74.9062C280.569 74.9744 280.29 75.0369 279.978 75.0938C279.665 75.1449 279.359 75.1903 279.058 75.2301C278.762 75.2699 278.512 75.304 278.308 75.3324C277.83 75.4006 277.396 75.5085 277.004 75.6562C276.617 75.7983 276.308 76.0028 276.075 76.2699C275.847 76.5312 275.734 76.8778 275.734 77.3097C275.734 77.9119 275.955 78.3693 276.398 78.6818C276.847 78.9886 277.415 79.142 278.103 79.142ZM290.143 73.2699V81H287.357V67.9091H290.024V70.0824H290.186C290.487 69.3722 290.962 68.804 291.609 68.3778C292.263 67.9517 293.081 67.7386 294.064 67.7386C294.962 67.7386 295.746 67.929 296.416 68.3097C297.087 68.6847 297.607 69.2386 297.976 69.9716C298.351 70.7045 298.536 71.6051 298.53 72.6733V81H295.751V73.0483C295.751 72.1335 295.513 71.4176 295.036 70.9006C294.558 70.3778 293.905 70.1165 293.075 70.1165C292.501 70.1165 291.993 70.2415 291.55 70.4915C291.112 70.7358 290.768 71.0937 290.518 71.5653C290.268 72.0369 290.143 72.6051 290.143 73.2699ZM307.4 86.1818C306.326 86.1818 305.406 86.0398 304.638 85.7557C303.877 85.4716 303.258 85.0938 302.781 84.6222C302.303 84.1506 301.957 83.6335 301.741 83.071L304.187 82.2699C304.329 82.5199 304.525 82.7784 304.775 83.0455C305.025 83.3182 305.363 83.5455 305.789 83.7273C306.221 83.9148 306.769 84.0085 307.434 84.0085C308.366 84.0085 309.133 83.7841 309.735 83.3352C310.343 82.8864 310.647 82.1619 310.647 81.1619V78.6307H310.485C310.332 78.9261 310.107 79.2443 309.812 79.5852C309.516 79.9205 309.119 80.2074 308.619 80.446C308.119 80.6847 307.479 80.804 306.701 80.804C305.684 80.804 304.763 80.5653 303.94 80.0881C303.116 79.6051 302.462 78.8892 301.979 77.9403C301.502 76.9915 301.263 75.8125 301.263 74.4034C301.263 72.9943 301.502 71.7926 301.979 70.7983C302.457 69.804 303.107 69.0455 303.931 68.5227C304.755 68 305.684 67.7386 306.718 67.7386C307.513 67.7386 308.158 67.8722 308.653 68.1392C309.153 68.4006 309.545 68.7131 309.829 69.0767C310.119 69.4347 310.343 69.7585 310.502 70.0483H310.673V67.9091H313.408V81.2557C313.408 82.375 313.144 83.2983 312.616 84.0256C312.087 84.7528 311.369 85.2926 310.46 85.6449C309.556 86.0028 308.536 86.1818 307.4 86.1818ZM307.4 78.5625C308.099 78.5625 308.69 78.3977 309.173 78.0682C309.661 77.733 310.033 77.2528 310.289 76.6278C310.545 76.0028 310.673 75.2528 310.673 74.3778C310.673 73.5199 310.545 72.767 310.289 72.1193C310.039 71.4716 309.67 70.9687 309.181 70.6108C308.698 70.2472 308.104 70.0653 307.4 70.0653C306.667 70.0653 306.053 70.2557 305.559 70.6364C305.07 71.0114 304.701 71.5256 304.451 72.179C304.207 72.8267 304.085 73.5597 304.085 74.3778C304.085 75.2131 304.21 75.946 304.46 76.5767C304.71 77.2017 305.079 77.6903 305.567 78.0426C306.062 78.3892 306.673 78.5625 307.4 78.5625ZM325.042 75.5369V67.9091H327.829V81H325.11V78.7074H324.974C324.673 79.4176 324.19 80.0057 323.525 80.4716C322.86 80.9375 322.036 81.1705 321.053 81.1705C320.207 81.1705 319.457 80.983 318.803 80.608C318.156 80.2273 317.647 79.6705 317.278 78.9375C316.914 78.2045 316.729 77.304 316.724 76.2358V67.9091H319.511V75.8608C319.511 76.7244 319.749 77.4119 320.227 77.9233C320.704 78.4347 321.323 78.6903 322.085 78.6903C322.556 78.6903 323.019 78.5767 323.474 78.3494C323.928 78.1165 324.303 77.767 324.599 77.3011C324.9 76.8352 325.048 76.2472 325.042 75.5369ZM334.93 81.2812C334.101 81.2812 333.354 81.1307 332.689 80.8295C332.024 80.5227 331.496 80.0739 331.104 79.483C330.717 78.892 330.524 78.1676 330.524 77.3097C330.524 76.571 330.663 75.9631 330.942 75.4858C331.226 75.0028 331.607 74.6193 332.084 74.3352C332.561 74.0511 333.098 73.8381 333.695 73.696C334.291 73.554 334.902 73.446 335.527 73.3722C336.305 73.2812 336.936 73.2074 337.419 73.1506C337.902 73.0881 338.254 72.9886 338.476 72.8523C338.697 72.7159 338.808 72.4943 338.808 72.1875V72.1278C338.808 71.4347 338.607 70.8949 338.203 70.5085C337.8 70.1222 337.209 69.929 336.43 69.929C335.618 69.929 334.976 70.108 334.504 70.4659C334.038 70.8239 333.717 71.2301 333.541 71.6847L330.942 71.1989C331.203 70.4034 331.601 69.75 332.135 69.2386C332.675 68.7273 333.311 68.3494 334.044 68.1051C334.777 67.8608 335.564 67.7386 336.405 67.7386C336.973 67.7386 337.558 67.8068 338.161 67.9432C338.768 68.0739 339.331 68.304 339.848 68.6335C340.365 68.9631 340.783 69.4233 341.101 70.0142C341.425 70.6051 341.587 71.3608 341.587 72.2812V81H338.893V79.2102H338.791C338.621 79.5511 338.368 79.8807 338.033 80.1989C337.697 80.517 337.274 80.7784 336.763 80.983C336.251 81.1818 335.641 81.2812 334.93 81.2812ZM335.595 79.142C336.266 79.142 336.839 79.0085 337.317 78.7415C337.8 78.4744 338.169 78.125 338.425 77.6932C338.686 77.2614 338.817 76.7926 338.817 76.2869V74.6676C338.72 74.7528 338.55 74.8324 338.305 74.9062C338.061 74.9744 337.783 75.0369 337.47 75.0938C337.158 75.1449 336.851 75.1903 336.55 75.2301C336.254 75.2699 336.004 75.304 335.8 75.3324C335.322 75.4006 334.888 75.5085 334.496 75.6562C334.109 75.7983 333.8 76.0028 333.567 76.2699C333.339 76.5312 333.226 76.8778 333.226 77.3097C333.226 77.9119 333.447 78.3693 333.891 78.6818C334.339 78.9886 334.908 79.142 335.595 79.142ZM350.431 86.1818C349.357 86.1818 348.437 86.0398 347.67 85.7557C346.908 85.4716 346.289 85.0938 345.812 84.6222C345.335 84.1506 344.988 83.6335 344.772 83.071L347.218 82.2699C347.36 82.5199 347.556 82.7784 347.806 83.0455C348.056 83.3182 348.394 83.5455 348.82 83.7273C349.252 83.9148 349.8 84.0085 350.465 84.0085C351.397 84.0085 352.164 83.7841 352.766 83.3352C353.374 82.8864 353.678 82.1619 353.678 81.1619V78.6307H353.516C353.363 78.9261 353.138 79.2443 352.843 79.5852C352.548 79.9205 352.15 80.2074 351.65 80.446C351.15 80.6847 350.511 80.804 349.732 80.804C348.715 80.804 347.795 80.5653 346.971 80.0881C346.147 79.6051 345.494 78.8892 345.011 77.9403C344.533 76.9915 344.295 75.8125 344.295 74.4034C344.295 72.9943 344.533 71.7926 345.011 70.7983C345.488 69.804 346.138 69.0455 346.962 68.5227C347.786 68 348.715 67.7386 349.749 67.7386C350.545 67.7386 351.19 67.8722 351.684 68.1392C352.184 68.4006 352.576 68.7131 352.86 69.0767C353.15 69.4347 353.374 69.7585 353.533 70.0483H353.704V67.9091H356.44V81.2557C356.44 82.375 356.175 83.2983 355.647 84.0256C355.119 84.7528 354.4 85.2926 353.491 85.6449C352.587 86.0028 351.567 86.1818 350.431 86.1818ZM350.431 78.5625C351.13 78.5625 351.721 78.3977 352.204 78.0682C352.692 77.733 353.065 77.2528 353.32 76.6278C353.576 76.0028 353.704 75.2528 353.704 74.3778C353.704 73.5199 353.576 72.767 353.32 72.1193C353.07 71.4716 352.701 70.9687 352.212 70.6108C351.729 70.2472 351.136 70.0653 350.431 70.0653C349.698 70.0653 349.085 70.2557 348.59 70.6364C348.102 71.0114 347.732 71.5256 347.482 72.179C347.238 72.8267 347.116 73.5597 347.116 74.3778C347.116 75.2131 347.241 75.946 347.491 76.5767C347.741 77.2017 348.11 77.6903 348.599 78.0426C349.093 78.3892 349.704 78.5625 350.431 78.5625ZM365.474 81.2642C364.173 81.2642 363.05 80.9886 362.107 80.4375C361.17 79.8807 360.448 79.0994 359.942 78.0938C359.437 77.0824 359.184 75.8977 359.184 74.5398C359.184 73.1932 359.437 72.0114 359.942 70.9943C360.448 69.9716 361.158 69.1733 362.073 68.5994C362.988 68.0256 364.062 67.7386 365.295 67.7386C366.062 67.7386 366.798 67.8636 367.502 68.1136C368.207 68.3636 368.835 68.7528 369.386 69.2812C369.937 69.8097 370.371 70.4915 370.69 71.3267C371.013 72.1619 371.175 73.1648 371.175 74.3352V75.2557H360.624V73.2699H368.474C368.474 72.6335 368.343 72.0682 368.082 71.5739C367.82 71.0795 367.454 70.6903 366.982 70.4062C366.511 70.1165 365.957 69.9716 365.32 69.9716C364.644 69.9716 364.05 70.1364 363.539 70.4659C363.033 70.7955 362.641 71.2273 362.363 71.7614C362.085 72.2898 361.945 72.8665 361.945 73.4915V75.1193C361.945 75.9432 362.093 76.6477 362.388 77.233C362.684 77.8125 363.096 78.2585 363.624 78.571C364.158 78.8778 364.783 79.0312 365.499 79.0312C365.971 79.0312 366.397 78.9659 366.778 78.8352C367.164 78.6989 367.496 78.4972 367.775 78.2301C368.053 77.9631 368.266 77.6307 368.414 77.233L371.031 77.625C370.837 78.358 370.491 78.9972 369.991 79.5426C369.491 80.0881 368.857 80.5114 368.09 80.8125C367.323 81.1136 366.451 81.2642 365.474 81.2642ZM13.7557 131.543L2.29261 136.98V134.202L10.6193 130.503L10.5256 130.656V130.281L10.6193 130.435L2.29261 126.736V123.949L13.7557 129.395V131.543ZM33.5774 126.224C33.4922 125.44 33.1342 124.832 32.5036 124.401C31.8786 123.969 31.0803 123.753 30.1087 123.753C29.4155 123.753 28.8189 123.861 28.3189 124.077C27.8189 124.287 27.4325 124.577 27.1598 124.946C26.8928 125.315 26.7564 125.736 26.7507 126.207C26.7507 126.599 26.8416 126.937 27.0234 127.222C27.2109 127.506 27.4581 127.747 27.7649 127.946C28.0717 128.139 28.4041 128.301 28.7621 128.432C29.1257 128.562 29.4837 128.67 29.8359 128.756L31.5064 129.182C32.1087 129.324 32.7081 129.52 33.3047 129.77C33.9013 130.014 34.4439 130.33 34.9325 130.716C35.4268 131.102 35.8217 131.577 36.1172 132.139C36.4183 132.702 36.5717 133.369 36.5774 134.142C36.5717 135.148 36.3132 136.037 35.8018 136.81C35.2905 137.577 34.5462 138.182 33.5689 138.625C32.5973 139.062 31.4212 139.281 30.0405 139.281C28.7166 139.281 27.5661 139.074 26.5888 138.659C25.6172 138.239 24.8558 137.639 24.3047 136.861C23.7592 136.077 23.4609 135.134 23.4098 134.031H26.2564C26.3018 134.656 26.4979 135.173 26.8445 135.582C27.1911 135.991 27.6399 136.298 28.1911 136.503C28.7479 136.702 29.3587 136.801 30.0234 136.801C30.745 136.801 31.3842 136.69 31.9411 136.469C32.4979 136.241 32.9354 135.929 33.2536 135.531C33.5717 135.128 33.7308 134.656 33.7308 134.116C33.7308 133.628 33.5888 133.224 33.3047 132.906C33.0263 132.588 32.6428 132.327 32.1541 132.122C31.6712 131.912 31.12 131.724 30.5007 131.56L28.4638 131.014C27.049 130.639 25.9297 130.08 25.1058 129.335C24.2876 128.591 23.8786 127.605 23.8786 126.378C23.8786 125.361 24.1541 124.474 24.7053 123.719C25.2564 122.957 26.0036 122.366 26.9467 121.946C27.8956 121.52 28.9666 121.307 30.1598 121.307C31.3643 121.307 32.424 121.517 33.3388 121.938C34.2592 122.358 34.9837 122.937 35.5121 123.676C36.0405 124.415 36.3161 125.264 36.3388 126.224H33.5774ZM43.1804 139.281C42.3509 139.281 41.6037 139.131 40.9389 138.83C40.2741 138.523 39.7457 138.074 39.3537 137.483C38.9673 136.892 38.7741 136.168 38.7741 135.31C38.7741 134.571 38.9134 133.963 39.1918 133.486C39.4759 133.003 39.8565 132.619 40.3338 132.335C40.8111 132.051 41.348 131.838 41.9446 131.696C42.5412 131.554 43.152 131.446 43.777 131.372C44.5554 131.281 45.1861 131.207 45.669 131.151C46.152 131.088 46.5043 130.989 46.7259 130.852C46.9474 130.716 47.0582 130.494 47.0582 130.188V130.128C47.0582 129.435 46.8565 128.895 46.4531 128.509C46.0497 128.122 45.4588 127.929 44.6804 127.929C43.8679 127.929 43.2259 128.108 42.7543 128.466C42.2884 128.824 41.9673 129.23 41.7912 129.685L39.1918 129.199C39.4531 128.403 39.8509 127.75 40.3849 127.239C40.9247 126.727 41.5611 126.349 42.294 126.105C43.027 125.861 43.8139 125.739 44.6548 125.739C45.223 125.739 45.8082 125.807 46.4105 125.943C47.0185 126.074 47.581 126.304 48.098 126.634C48.6151 126.963 49.0327 127.423 49.3509 128.014C49.6747 128.605 49.8366 129.361 49.8366 130.281V139H47.1435V137.21H47.0412C46.8707 137.551 46.6179 137.881 46.2827 138.199C45.9474 138.517 45.5241 138.778 45.0128 138.983C44.5014 139.182 43.8906 139.281 43.1804 139.281ZM43.8452 137.142C44.5156 137.142 45.0895 137.009 45.5668 136.741C46.0497 136.474 46.419 136.125 46.6747 135.693C46.9361 135.261 47.0668 134.793 47.0668 134.287V132.668C46.9702 132.753 46.7997 132.832 46.5554 132.906C46.3111 132.974 46.0327 133.037 45.7202 133.094C45.4077 133.145 45.1009 133.19 44.7997 133.23C44.5043 133.27 44.2543 133.304 44.0497 133.332C43.5724 133.401 43.1378 133.509 42.7457 133.656C42.3594 133.798 42.0497 134.003 41.8168 134.27C41.5895 134.531 41.4759 134.878 41.4759 135.31C41.4759 135.912 41.6974 136.369 42.1406 136.682C42.5895 136.989 43.1577 137.142 43.8452 137.142ZM59.5078 125.909V128.099H51.9652V125.909H59.5078ZM53.951 139V124.511C53.951 123.665 54.13 122.963 54.4879 122.406C54.8516 121.844 55.3345 121.423 55.9368 121.145C56.5391 120.866 57.201 120.727 57.9226 120.727C58.4453 120.727 58.8999 120.77 59.2862 120.855C59.6726 120.935 59.9595 121.009 60.147 121.077L59.5334 123.284C59.4141 123.244 59.2578 123.202 59.0646 123.156C58.8714 123.111 58.647 123.088 58.3913 123.088C57.7891 123.088 57.3601 123.236 57.1044 123.531C56.8544 123.821 56.7294 124.241 56.7294 124.793V139H53.951ZM62.0284 139V125.909H64.8153V139H62.0284ZM63.4347 123.957C62.9744 123.957 62.5767 123.804 62.2415 123.497C61.9119 123.185 61.7472 122.81 61.7472 122.372C61.7472 121.935 61.9119 121.562 62.2415 121.256C62.5767 120.943 62.9744 120.787 63.4347 120.787C63.8949 120.787 64.2898 120.943 64.6193 121.256C64.9545 121.562 65.1222 121.935 65.1222 122.372C65.1222 122.81 64.9545 123.185 64.6193 123.497C64.2898 123.804 63.8949 123.957 63.4347 123.957ZM73.0057 139.247C71.9602 139.247 71.0284 138.98 70.2102 138.446C69.392 137.906 68.7472 137.134 68.2756 136.128C67.804 135.116 67.5682 133.901 67.5682 132.48C67.5682 131.048 67.8068 129.83 68.2841 128.824C68.7614 127.818 69.4119 127.054 70.2358 126.531C71.0597 126.003 71.9886 125.739 73.0227 125.739C73.8182 125.739 74.4631 125.872 74.9574 126.139C75.4517 126.401 75.8409 126.713 76.125 127.077C76.4091 127.435 76.6278 127.759 76.7812 128.048H76.9176V121.545H79.7045V139H76.9773V136.946H76.7812C76.6222 137.247 76.3949 137.577 76.0994 137.935C75.8097 138.293 75.4148 138.602 74.9148 138.864C74.4205 139.119 73.7841 139.247 73.0057 139.247ZM73.7045 136.92C74.4034 136.92 74.9943 136.733 75.4773 136.358C75.9659 135.983 76.3381 135.46 76.5938 134.79C76.8494 134.119 76.9773 133.341 76.9773 132.455C76.9773 131.574 76.8494 130.804 76.5938 130.145C76.3438 129.486 75.9744 128.974 75.4858 128.611C75.0028 128.247 74.4091 128.065 73.7045 128.065C72.9716 128.065 72.358 128.256 71.8636 128.636C71.375 129.017 71.0057 129.54 70.7557 130.205C70.5114 130.864 70.3892 131.614 70.3892 132.455C70.3892 133.307 70.5142 134.071 70.7642 134.747C71.0142 135.418 71.3835 135.949 71.8722 136.341C72.3665 136.727 72.9773 136.92 73.7045 136.92ZM83.1925 139V125.909H85.9794V139H83.1925ZM84.5987 123.957C84.1385 123.957 83.7408 123.804 83.4055 123.497C83.076 123.185 82.9112 122.81 82.9112 122.372C82.9112 121.935 83.076 121.562 83.4055 121.256C83.7408 120.943 84.1385 120.787 84.5987 120.787C85.0589 120.787 85.4538 120.943 85.7834 121.256C86.1186 121.562 86.2862 121.935 86.2862 122.372C86.2862 122.81 86.1186 123.185 85.7834 123.497C85.4538 123.804 85.0589 123.957 84.5987 123.957ZM94.8857 139.264C93.6357 139.264 92.5476 138.983 91.6214 138.42C90.701 137.858 89.9851 137.071 89.4737 136.06C88.968 135.043 88.7152 133.861 88.7152 132.514C88.7152 131.156 88.968 129.969 89.4737 128.952C89.9851 127.935 90.701 127.145 91.6214 126.582C92.5476 126.02 93.6357 125.739 94.8857 125.739C96.1357 125.739 97.2237 126.02 98.1499 126.582C99.076 127.145 99.7919 127.935 100.298 128.952C100.809 129.969 101.065 131.156 101.065 132.514C101.065 133.861 100.809 135.043 100.298 136.06C99.7919 137.071 99.076 137.858 98.1499 138.42C97.2237 138.983 96.1357 139.264 94.8857 139.264ZM94.9027 136.98C95.6527 136.98 96.2749 136.778 96.7692 136.375C97.2692 135.966 97.6413 135.423 97.8857 134.747C98.13 134.071 98.2521 133.324 98.2521 132.506C98.2521 131.682 98.13 130.932 97.8857 130.256C97.6413 129.574 97.2692 129.028 96.7692 128.619C96.2749 128.21 95.6527 128.006 94.9027 128.006C94.1413 128.006 93.5107 128.21 93.0107 128.619C92.5107 129.028 92.1385 129.574 91.8942 130.256C91.6499 130.932 91.5277 131.682 91.5277 132.506C91.5277 133.324 91.6499 134.071 91.8942 134.747C92.1385 135.423 92.5107 135.966 93.0107 136.375C93.5107 136.778 94.1413 136.98 94.9027 136.98ZM124.359 121.545V139H121.768L113.178 126.591H113.024V139H110.161V121.545H112.768L121.359 133.972H121.521V121.545H124.359ZM129.588 143.909C129.19 143.909 128.827 143.878 128.497 143.815C128.168 143.753 127.912 143.685 127.73 143.611L128.386 141.386C128.847 141.517 129.256 141.574 129.614 141.557C129.977 141.545 130.295 141.42 130.568 141.182C130.841 140.943 131.08 140.554 131.284 140.014L131.582 139.213L126.81 125.909H129.776L132.955 135.949H133.091L136.287 125.909H139.261L133.926 140.679C133.682 141.366 133.361 141.952 132.963 142.435C132.571 142.918 132.097 143.284 131.54 143.534C130.983 143.784 130.332 143.909 129.588 143.909ZM147.077 123.974V121.545H160.764V123.974H155.344V139H152.497V123.974H147.077ZM167.239 139.264C165.938 139.264 164.816 138.989 163.873 138.438C162.935 137.881 162.214 137.099 161.708 136.094C161.202 135.082 160.95 133.898 160.95 132.54C160.95 131.193 161.202 130.011 161.708 128.994C162.214 127.972 162.924 127.173 163.839 126.599C164.754 126.026 165.827 125.739 167.06 125.739C167.827 125.739 168.563 125.864 169.268 126.114C169.972 126.364 170.6 126.753 171.151 127.281C171.702 127.81 172.137 128.491 172.455 129.327C172.779 130.162 172.941 131.165 172.941 132.335V133.256H162.39V131.27H170.239C170.239 130.634 170.109 130.068 169.847 129.574C169.586 129.08 169.219 128.69 168.748 128.406C168.276 128.116 167.722 127.972 167.086 127.972C166.41 127.972 165.816 128.136 165.305 128.466C164.799 128.795 164.407 129.227 164.129 129.761C163.85 130.29 163.711 130.866 163.711 131.491V133.119C163.711 133.943 163.859 134.648 164.154 135.233C164.45 135.812 164.862 136.259 165.39 136.571C165.924 136.878 166.549 137.031 167.265 137.031C167.737 137.031 168.163 136.966 168.543 136.835C168.93 136.699 169.262 136.497 169.54 136.23C169.819 135.963 170.032 135.631 170.18 135.233L172.796 135.625C172.603 136.358 172.256 136.997 171.756 137.543C171.256 138.088 170.623 138.511 169.856 138.812C169.089 139.114 168.217 139.264 167.239 139.264ZM178.464 131.27V139H175.677V125.909H178.344V128.082H178.506C178.808 127.372 179.282 126.804 179.93 126.378C180.583 125.952 181.401 125.739 182.384 125.739C183.282 125.739 184.066 125.929 184.737 126.31C185.407 126.685 185.927 127.239 186.296 127.972C186.671 128.705 186.856 129.605 186.85 130.673V139H184.072V131.048C184.072 130.134 183.833 129.418 183.356 128.901C182.879 128.378 182.225 128.116 181.396 128.116C180.822 128.116 180.313 128.241 179.87 128.491C179.433 128.736 179.089 129.094 178.839 129.565C178.589 130.037 178.464 130.605 178.464 131.27ZM190.138 139V125.909H192.925V139H190.138ZM191.544 123.957C191.084 123.957 190.686 123.804 190.351 123.497C190.021 123.185 189.857 122.81 189.857 122.372C189.857 121.935 190.021 121.562 190.351 121.256C190.686 120.943 191.084 120.787 191.544 120.787C192.004 120.787 192.399 120.943 192.729 121.256C193.064 121.562 193.232 121.935 193.232 122.372C193.232 122.81 193.064 123.185 192.729 123.497C192.399 123.804 192.004 123.957 191.544 123.957ZM199.018 131.27V139H196.232V125.909H198.899V128.082H199.061C199.362 127.372 199.837 126.804 200.484 126.378C201.138 125.952 201.956 125.739 202.939 125.739C203.837 125.739 204.621 125.929 205.291 126.31C205.962 126.685 206.482 127.239 206.851 127.972C207.226 128.705 207.411 129.605 207.405 130.673V139H204.626V131.048C204.626 130.134 204.388 129.418 203.911 128.901C203.433 128.378 202.78 128.116 201.95 128.116C201.376 128.116 200.868 128.241 200.425 128.491C199.987 128.736 199.643 129.094 199.393 129.565C199.143 130.037 199.018 130.605 199.018 131.27ZM214.485 139.281C213.656 139.281 212.908 139.131 212.244 138.83C211.579 138.523 211.05 138.074 210.658 137.483C210.272 136.892 210.079 136.168 210.079 135.31C210.079 134.571 210.218 133.963 210.496 133.486C210.781 133.003 211.161 132.619 211.638 132.335C212.116 132.051 212.653 131.838 213.249 131.696C213.846 131.554 214.457 131.446 215.082 131.372C215.86 131.281 216.491 131.207 216.974 131.151C217.457 131.088 217.809 130.989 218.031 130.852C218.252 130.716 218.363 130.494 218.363 130.188V130.128C218.363 129.435 218.161 128.895 217.758 128.509C217.354 128.122 216.763 127.929 215.985 127.929C215.173 127.929 214.531 128.108 214.059 128.466C213.593 128.824 213.272 129.23 213.096 129.685L210.496 129.199C210.758 128.403 211.156 127.75 211.69 127.239C212.229 126.727 212.866 126.349 213.599 126.105C214.332 125.861 215.119 125.739 215.96 125.739C216.528 125.739 217.113 125.807 217.715 125.943C218.323 126.074 218.886 126.304 219.403 126.634C219.92 126.963 220.337 127.423 220.656 128.014C220.979 128.605 221.141 129.361 221.141 130.281V139H218.448V137.21H218.346C218.175 137.551 217.923 137.881 217.587 138.199C217.252 138.517 216.829 138.778 216.317 138.983C215.806 139.182 215.195 139.281 214.485 139.281ZM215.15 137.142C215.82 137.142 216.394 137.009 216.871 136.741C217.354 136.474 217.724 136.125 217.979 135.693C218.241 135.261 218.371 134.793 218.371 134.287V132.668C218.275 132.753 218.104 132.832 217.86 132.906C217.616 132.974 217.337 133.037 217.025 133.094C216.712 133.145 216.406 133.19 216.104 133.23C215.809 133.27 215.559 133.304 215.354 133.332C214.877 133.401 214.442 133.509 214.05 133.656C213.664 133.798 213.354 134.003 213.121 134.27C212.894 134.531 212.781 134.878 212.781 135.31C212.781 135.912 213.002 136.369 213.445 136.682C213.894 136.989 214.462 137.142 215.15 137.142ZM230.003 139.264C228.753 139.264 227.665 138.983 226.739 138.42C225.818 137.858 225.102 137.071 224.591 136.06C224.085 135.043 223.832 133.861 223.832 132.514C223.832 131.156 224.085 129.969 224.591 128.952C225.102 127.935 225.818 127.145 226.739 126.582C227.665 126.02 228.753 125.739 230.003 125.739C231.253 125.739 232.341 126.02 233.267 126.582C234.193 127.145 234.909 127.935 235.415 128.952C235.926 129.969 236.182 131.156 236.182 132.514C236.182 133.861 235.926 135.043 235.415 136.06C234.909 137.071 234.193 137.858 233.267 138.42C232.341 138.983 231.253 139.264 230.003 139.264ZM230.02 136.98C230.77 136.98 231.392 136.778 231.886 136.375C232.386 135.966 232.759 135.423 233.003 134.747C233.247 134.071 233.369 133.324 233.369 132.506C233.369 131.682 233.247 130.932 233.003 130.256C232.759 129.574 232.386 129.028 231.886 128.619C231.392 128.21 230.77 128.006 230.02 128.006C229.259 128.006 228.628 128.21 228.128 128.619C227.628 129.028 227.256 129.574 227.011 130.256C226.767 130.932 226.645 131.682 226.645 132.506C226.645 133.324 226.767 134.071 227.011 134.747C227.256 135.423 227.628 135.966 228.128 136.375C228.628 136.778 229.259 136.98 230.02 136.98ZM247.085 139H244.042L250.263 121.545H253.673L259.894 139H256.852L252.036 124.895H251.9L247.085 139ZM247.391 132.165H256.519V134.517H247.391V132.165ZM261.908 139V137.168L268.854 128.389V128.27H262.138V125.909H272.297V127.869L265.641 136.52V136.639H272.527V139H261.908ZM279.266 139.281C278.437 139.281 277.69 139.131 277.025 138.83C276.36 138.523 275.832 138.074 275.44 137.483C275.053 136.892 274.86 136.168 274.86 135.31C274.86 134.571 274.999 133.963 275.278 133.486C275.562 133.003 275.942 132.619 276.42 132.335C276.897 132.051 277.434 131.838 278.031 131.696C278.627 131.554 279.238 131.446 279.863 131.372C280.641 131.281 281.272 131.207 281.755 131.151C282.238 131.088 282.59 130.989 282.812 130.852C283.033 130.716 283.144 130.494 283.144 130.188V130.128C283.144 129.435 282.942 128.895 282.539 128.509C282.136 128.122 281.545 127.929 280.766 127.929C279.954 127.929 279.312 128.108 278.84 128.466C278.374 128.824 278.053 129.23 277.877 129.685L275.278 129.199C275.539 128.403 275.937 127.75 276.471 127.239C277.011 126.727 277.647 126.349 278.38 126.105C279.113 125.861 279.9 125.739 280.741 125.739C281.309 125.739 281.894 125.807 282.496 125.943C283.104 126.074 283.667 126.304 284.184 126.634C284.701 126.963 285.119 127.423 285.437 128.014C285.761 128.605 285.923 129.361 285.923 130.281V139H283.229V137.21H283.127C282.957 137.551 282.704 137.881 282.369 138.199C282.033 138.517 281.61 138.778 281.099 138.983C280.587 139.182 279.977 139.281 279.266 139.281ZM279.931 137.142C280.602 137.142 281.175 137.009 281.653 136.741C282.136 136.474 282.505 136.125 282.761 135.693C283.022 135.261 283.153 134.793 283.153 134.287V132.668C283.056 132.753 282.886 132.832 282.641 132.906C282.397 132.974 282.119 133.037 281.806 133.094C281.494 133.145 281.187 133.19 280.886 133.23C280.59 133.27 280.34 133.304 280.136 133.332C279.658 133.401 279.224 133.509 278.832 133.656C278.445 133.798 278.136 134.003 277.903 134.27C277.675 134.531 277.562 134.878 277.562 135.31C277.562 135.912 277.783 136.369 278.227 136.682C278.675 136.989 279.244 137.142 279.931 137.142ZM295.594 125.909V128.099H288.051V125.909H295.594ZM290.037 139V124.511C290.037 123.665 290.216 122.963 290.574 122.406C290.938 121.844 291.42 121.423 292.023 121.145C292.625 120.866 293.287 120.727 294.009 120.727C294.531 120.727 294.986 120.77 295.372 120.855C295.759 120.935 296.045 121.009 296.233 121.077L295.619 123.284C295.5 123.244 295.344 123.202 295.151 123.156C294.957 123.111 294.733 123.088 294.477 123.088C293.875 123.088 293.446 123.236 293.19 123.531C292.94 123.821 292.815 124.241 292.815 124.793V139H290.037ZM301.485 139.281C300.656 139.281 299.908 139.131 299.244 138.83C298.579 138.523 298.05 138.074 297.658 137.483C297.272 136.892 297.079 136.168 297.079 135.31C297.079 134.571 297.218 133.963 297.496 133.486C297.781 133.003 298.161 132.619 298.638 132.335C299.116 132.051 299.653 131.838 300.249 131.696C300.846 131.554 301.457 131.446 302.082 131.372C302.86 131.281 303.491 131.207 303.974 131.151C304.457 131.088 304.809 130.989 305.031 130.852C305.252 130.716 305.363 130.494 305.363 130.188V130.128C305.363 129.435 305.161 128.895 304.758 128.509C304.354 128.122 303.763 127.929 302.985 127.929C302.173 127.929 301.531 128.108 301.059 128.466C300.593 128.824 300.272 129.23 300.096 129.685L297.496 129.199C297.758 128.403 298.156 127.75 298.69 127.239C299.229 126.727 299.866 126.349 300.599 126.105C301.332 125.861 302.119 125.739 302.96 125.739C303.528 125.739 304.113 125.807 304.715 125.943C305.323 126.074 305.886 126.304 306.403 126.634C306.92 126.963 307.337 127.423 307.656 128.014C307.979 128.605 308.141 129.361 308.141 130.281V139H305.448V137.21H305.346C305.175 137.551 304.923 137.881 304.587 138.199C304.252 138.517 303.829 138.778 303.317 138.983C302.806 139.182 302.195 139.281 301.485 139.281ZM302.15 137.142C302.82 137.142 303.394 137.009 303.871 136.741C304.354 136.474 304.724 136.125 304.979 135.693C305.241 135.261 305.371 134.793 305.371 134.287V132.668C305.275 132.753 305.104 132.832 304.86 132.906C304.616 132.974 304.337 133.037 304.025 133.094C303.712 133.145 303.406 133.19 303.104 133.23C302.809 133.27 302.559 133.304 302.354 133.332C301.877 133.401 301.442 133.509 301.05 133.656C300.664 133.798 300.354 134.003 300.121 134.27C299.894 134.531 299.781 134.878 299.781 135.31C299.781 135.912 300.002 136.369 300.445 136.682C300.894 136.989 301.462 137.142 302.15 137.142ZM316.287 139.247C315.241 139.247 314.31 138.98 313.491 138.446C312.673 137.906 312.028 137.134 311.557 136.128C311.085 135.116 310.849 133.901 310.849 132.48C310.849 131.048 311.088 129.83 311.565 128.824C312.043 127.818 312.693 127.054 313.517 126.531C314.341 126.003 315.27 125.739 316.304 125.739C317.099 125.739 317.744 125.872 318.239 126.139C318.733 126.401 319.122 126.713 319.406 127.077C319.69 127.435 319.909 127.759 320.062 128.048H320.199V121.545H322.986V139H320.259V136.946H320.062C319.903 137.247 319.676 137.577 319.381 137.935C319.091 138.293 318.696 138.602 318.196 138.864C317.702 139.119 317.065 139.247 316.287 139.247ZM316.986 136.92C317.685 136.92 318.276 136.733 318.759 136.358C319.247 135.983 319.619 135.46 319.875 134.79C320.131 134.119 320.259 133.341 320.259 132.455C320.259 131.574 320.131 130.804 319.875 130.145C319.625 129.486 319.256 128.974 318.767 128.611C318.284 128.247 317.69 128.065 316.986 128.065C316.253 128.065 315.639 128.256 315.145 128.636C314.656 129.017 314.287 129.54 314.037 130.205C313.793 130.864 313.67 131.614 313.67 132.455C313.67 133.307 313.795 134.071 314.045 134.747C314.295 135.418 314.665 135.949 315.153 136.341C315.648 136.727 316.259 136.92 316.986 136.92ZM328.221 143.909C327.823 143.909 327.46 143.878 327.13 143.815C326.8 143.753 326.545 143.685 326.363 143.611L327.019 141.386C327.479 141.517 327.888 141.574 328.246 141.557C328.61 141.545 328.928 141.42 329.201 141.182C329.474 140.943 329.712 140.554 329.917 140.014L330.215 139.213L325.442 125.909H328.408L331.587 135.949H331.724L334.92 125.909H337.894L332.559 140.679C332.315 141.366 331.994 141.952 331.596 142.435C331.204 142.918 330.729 143.284 330.173 143.534C329.616 143.784 328.965 143.909 328.221 143.909Z" fill="#0D6C22"/>
</svg>
